<?xml version="1.0" encoding="utf-8" standalone="no"?>
<!DOCTYPE svg PUBLIC "-//W3C//DTD SVG 1.1//EN"
  "http://www.w3.org/Graphics/SVG/1.1/DTD/svg11.dtd">
<svg xmlns:xlink="http://www.w3.org/1999/xlink" width="776.473433pt" height="207.674687pt" viewBox="0 0 776.473433 207.674687" xmlns="http://www.w3.org/2000/svg" version="1.1">
 <metadata>
  <rdf:RDF xmlns:dc="http://purl.org/dc/elements/1.1/" xmlns:cc="http://creativecommons.org/ns#" xmlns:rdf="http://www.w3.org/1999/02/22-rdf-syntax-ns#">
   <cc:Work>
    <dc:type rdf:resource="http://purl.org/dc/dcmitype/StillImage"/>
    <dc:date>2022-09-22T09:45:33.604632</dc:date>
    <dc:format>image/svg+xml</dc:format>
    <dc:creator>
     <cc:Agent>
      <dc:title>Matplotlib v3.5.3, https://matplotlib.org/</dc:title>
     </cc:Agent>
    </dc:creator>
   </cc:Work>
  </rdf:RDF>
 </metadata>
 <defs>
  <style type="text/css">*{stroke-linejoin: round; stroke-linecap: butt}</style>
 </defs>
 <g id="figure_1">
  <g id="patch_1">
   <path d="M 0 207.674687 
L 776.473433 207.674687 
L 776.473433 0 
L 0 0 
z
" style="fill: #ffffff"/>
  </g>
  <g id="axes_1">
   <g id="patch_2">
    <path d="M 40.603125 170.118437 
L 215.816773 170.118437 
L 215.816773 20.798437 
L 40.603125 20.798437 
z
" style="fill: #ffffff"/>
   </g>
   <g id="matplotlib.axis_1">
    <g id="xtick_1">
     <g id="line2d_1">
      <defs>
       <path id="m5cf0ea4cac" d="M 0 0 
L 0 3.5 
" style="stroke: #000000; stroke-width: 0.8"/>
      </defs>
      <g>
       <use xlink:href="#m5cf0ea4cac" x="48.567382" y="170.118437" style="stroke: #000000; stroke-width: 0.8"/>
      </g>
     </g>
     <g id="text_1">
      <!-- 0 -->
      <g transform="translate(45.386132 184.716875)scale(0.1 -0.1)">
       <defs>
        <path id="DejaVuSans-30" d="M 2034 4250 
Q 1547 4250 1301 3770 
Q 1056 3291 1056 2328 
Q 1056 1369 1301 889 
Q 1547 409 2034 409 
Q 2525 409 2770 889 
Q 3016 1369 3016 2328 
Q 3016 3291 2770 3770 
Q 2525 4250 2034 4250 
z
M 2034 4750 
Q 2819 4750 3233 4129 
Q 3647 3509 3647 2328 
Q 3647 1150 3233 529 
Q 2819 -91 2034 -91 
Q 1250 -91 836 529 
Q 422 1150 422 2328 
Q 422 3509 836 4129 
Q 1250 4750 2034 4750 
z
" transform="scale(0.015625)"/>
       </defs>
       <use xlink:href="#DejaVuSans-30"/>
      </g>
     </g>
    </g>
    <g id="xtick_2">
     <g id="line2d_2">
      <g>
       <use xlink:href="#m5cf0ea4cac" x="106.279387" y="170.118437" style="stroke: #000000; stroke-width: 0.8"/>
      </g>
     </g>
     <g id="text_2">
      <!-- 2000 -->
      <g transform="translate(93.554387 184.716875)scale(0.1 -0.1)">
       <defs>
        <path id="DejaVuSans-32" d="M 1228 531 
L 3431 531 
L 3431 0 
L 469 0 
L 469 531 
Q 828 903 1448 1529 
Q 2069 2156 2228 2338 
Q 2531 2678 2651 2914 
Q 2772 3150 2772 3378 
Q 2772 3750 2511 3984 
Q 2250 4219 1831 4219 
Q 1534 4219 1204 4116 
Q 875 4013 500 3803 
L 500 4441 
Q 881 4594 1212 4672 
Q 1544 4750 1819 4750 
Q 2544 4750 2975 4387 
Q 3406 4025 3406 3419 
Q 3406 3131 3298 2873 
Q 3191 2616 2906 2266 
Q 2828 2175 2409 1742 
Q 1991 1309 1228 531 
z
" transform="scale(0.015625)"/>
       </defs>
       <use xlink:href="#DejaVuSans-32"/>
       <use xlink:href="#DejaVuSans-30" x="63.623047"/>
       <use xlink:href="#DejaVuSans-30" x="127.246094"/>
       <use xlink:href="#DejaVuSans-30" x="190.869141"/>
      </g>
     </g>
    </g>
    <g id="xtick_3">
     <g id="line2d_3">
      <g>
       <use xlink:href="#m5cf0ea4cac" x="163.991392" y="170.118437" style="stroke: #000000; stroke-width: 0.8"/>
      </g>
     </g>
     <g id="text_3">
      <!-- 4000 -->
      <g transform="translate(151.266392 184.716875)scale(0.1 -0.1)">
       <defs>
        <path id="DejaVuSans-34" d="M 2419 4116 
L 825 1625 
L 2419 1625 
L 2419 4116 
z
M 2253 4666 
L 3047 4666 
L 3047 1625 
L 3713 1625 
L 3713 1100 
L 3047 1100 
L 3047 0 
L 2419 0 
L 2419 1100 
L 313 1100 
L 313 1709 
L 2253 4666 
z
" transform="scale(0.015625)"/>
       </defs>
       <use xlink:href="#DejaVuSans-34"/>
       <use xlink:href="#DejaVuSans-30" x="63.623047"/>
       <use xlink:href="#DejaVuSans-30" x="127.246094"/>
       <use xlink:href="#DejaVuSans-30" x="190.869141"/>
      </g>
     </g>
    </g>
    <g id="text_4">
     <!-- step -->
     <g transform="translate(117.394324 198.395)scale(0.1 -0.1)">
      <defs>
       <path id="DejaVuSans-73" d="M 2834 3397 
L 2834 2853 
Q 2591 2978 2328 3040 
Q 2066 3103 1784 3103 
Q 1356 3103 1142 2972 
Q 928 2841 928 2578 
Q 928 2378 1081 2264 
Q 1234 2150 1697 2047 
L 1894 2003 
Q 2506 1872 2764 1633 
Q 3022 1394 3022 966 
Q 3022 478 2636 193 
Q 2250 -91 1575 -91 
Q 1294 -91 989 -36 
Q 684 19 347 128 
L 347 722 
Q 666 556 975 473 
Q 1284 391 1588 391 
Q 1994 391 2212 530 
Q 2431 669 2431 922 
Q 2431 1156 2273 1281 
Q 2116 1406 1581 1522 
L 1381 1569 
Q 847 1681 609 1914 
Q 372 2147 372 2553 
Q 372 3047 722 3315 
Q 1072 3584 1716 3584 
Q 2034 3584 2315 3537 
Q 2597 3491 2834 3397 
z
" transform="scale(0.015625)"/>
       <path id="DejaVuSans-74" d="M 1172 4494 
L 1172 3500 
L 2356 3500 
L 2356 3053 
L 1172 3053 
L 1172 1153 
Q 1172 725 1289 603 
Q 1406 481 1766 481 
L 2356 481 
L 2356 0 
L 1766 0 
Q 1100 0 847 248 
Q 594 497 594 1153 
L 594 3053 
L 172 3053 
L 172 3500 
L 594 3500 
L 594 4494 
L 1172 4494 
z
" transform="scale(0.015625)"/>
       <path id="DejaVuSans-65" d="M 3597 1894 
L 3597 1613 
L 953 1613 
Q 991 1019 1311 708 
Q 1631 397 2203 397 
Q 2534 397 2845 478 
Q 3156 559 3463 722 
L 3463 178 
Q 3153 47 2828 -22 
Q 2503 -91 2169 -91 
Q 1331 -91 842 396 
Q 353 884 353 1716 
Q 353 2575 817 3079 
Q 1281 3584 2069 3584 
Q 2775 3584 3186 3129 
Q 3597 2675 3597 1894 
z
M 3022 2063 
Q 3016 2534 2758 2815 
Q 2500 3097 2075 3097 
Q 1594 3097 1305 2825 
Q 1016 2553 972 2059 
L 3022 2063 
z
" transform="scale(0.015625)"/>
       <path id="DejaVuSans-70" d="M 1159 525 
L 1159 -1331 
L 581 -1331 
L 581 3500 
L 1159 3500 
L 1159 2969 
Q 1341 3281 1617 3432 
Q 1894 3584 2278 3584 
Q 2916 3584 3314 3078 
Q 3713 2572 3713 1747 
Q 3713 922 3314 415 
Q 2916 -91 2278 -91 
Q 1894 -91 1617 61 
Q 1341 213 1159 525 
z
M 3116 1747 
Q 3116 2381 2855 2742 
Q 2594 3103 2138 3103 
Q 1681 3103 1420 2742 
Q 1159 2381 1159 1747 
Q 1159 1113 1420 752 
Q 1681 391 2138 391 
Q 2594 391 2855 752 
Q 3116 1113 3116 1747 
z
" transform="scale(0.015625)"/>
      </defs>
      <use xlink:href="#DejaVuSans-73"/>
      <use xlink:href="#DejaVuSans-74" x="52.099609"/>
      <use xlink:href="#DejaVuSans-65" x="91.308594"/>
      <use xlink:href="#DejaVuSans-70" x="152.832031"/>
     </g>
    </g>
   </g>
   <g id="matplotlib.axis_2">
    <g id="ytick_1">
     <g id="line2d_4">
      <defs>
       <path id="m901cdb6030" d="M 0 0 
L -3.5 0 
" style="stroke: #000000; stroke-width: 0.8"/>
      </defs>
      <g>
       <use xlink:href="#m901cdb6030" x="40.603125" y="167.323678" style="stroke: #000000; stroke-width: 0.8"/>
      </g>
     </g>
     <g id="text_5">
      <!-- 0 -->
      <g transform="translate(27.240625 171.122897)scale(0.1 -0.1)">
       <use xlink:href="#DejaVuSans-30"/>
      </g>
     </g>
    </g>
    <g id="ytick_2">
     <g id="line2d_5">
      <g>
       <use xlink:href="#m901cdb6030" x="40.603125" y="127.398544" style="stroke: #000000; stroke-width: 0.8"/>
      </g>
     </g>
     <g id="text_6">
      <!-- 10 -->
      <g transform="translate(20.878125 131.197763)scale(0.1 -0.1)">
       <defs>
        <path id="DejaVuSans-31" d="M 794 531 
L 1825 531 
L 1825 4091 
L 703 3866 
L 703 4441 
L 1819 4666 
L 2450 4666 
L 2450 531 
L 3481 531 
L 3481 0 
L 794 0 
L 794 531 
z
" transform="scale(0.015625)"/>
       </defs>
       <use xlink:href="#DejaVuSans-31"/>
       <use xlink:href="#DejaVuSans-30" x="63.623047"/>
      </g>
     </g>
    </g>
    <g id="ytick_3">
     <g id="line2d_6">
      <g>
       <use xlink:href="#m901cdb6030" x="40.603125" y="87.473411" style="stroke: #000000; stroke-width: 0.8"/>
      </g>
     </g>
     <g id="text_7">
      <!-- 20 -->
      <g transform="translate(20.878125 91.27263)scale(0.1 -0.1)">
       <use xlink:href="#DejaVuSans-32"/>
       <use xlink:href="#DejaVuSans-30" x="63.623047"/>
      </g>
     </g>
    </g>
    <g id="ytick_4">
     <g id="line2d_7">
      <g>
       <use xlink:href="#m901cdb6030" x="40.603125" y="47.548277" style="stroke: #000000; stroke-width: 0.8"/>
      </g>
     </g>
     <g id="text_8">
      <!-- 30 -->
      <g transform="translate(20.878125 51.347496)scale(0.1 -0.1)">
       <defs>
        <path id="DejaVuSans-33" d="M 2597 2516 
Q 3050 2419 3304 2112 
Q 3559 1806 3559 1356 
Q 3559 666 3084 287 
Q 2609 -91 1734 -91 
Q 1441 -91 1130 -33 
Q 819 25 488 141 
L 488 750 
Q 750 597 1062 519 
Q 1375 441 1716 441 
Q 2309 441 2620 675 
Q 2931 909 2931 1356 
Q 2931 1769 2642 2001 
Q 2353 2234 1838 2234 
L 1294 2234 
L 1294 2753 
L 1863 2753 
Q 2328 2753 2575 2939 
Q 2822 3125 2822 3475 
Q 2822 3834 2567 4026 
Q 2313 4219 1838 4219 
Q 1578 4219 1281 4162 
Q 984 4106 628 3988 
L 628 4550 
Q 988 4650 1302 4700 
Q 1616 4750 1894 4750 
Q 2613 4750 3031 4423 
Q 3450 4097 3450 3541 
Q 3450 3153 3228 2886 
Q 3006 2619 2597 2516 
z
" transform="scale(0.015625)"/>
       </defs>
       <use xlink:href="#DejaVuSans-33"/>
       <use xlink:href="#DejaVuSans-30" x="63.623047"/>
      </g>
     </g>
    </g>
    <g id="text_9">
     <!-- h -->
     <g transform="translate(14.798438 98.627187)rotate(-90)scale(0.1 -0.1)">
      <defs>
       <path id="DejaVuSans-68" d="M 3513 2113 
L 3513 0 
L 2938 0 
L 2938 2094 
Q 2938 2591 2744 2837 
Q 2550 3084 2163 3084 
Q 1697 3084 1428 2787 
Q 1159 2491 1159 1978 
L 1159 0 
L 581 0 
L 581 4863 
L 1159 4863 
L 1159 2956 
Q 1366 3272 1645 3428 
Q 1925 3584 2291 3584 
Q 2894 3584 3203 3211 
Q 3513 2838 3513 2113 
z
" transform="scale(0.015625)"/>
      </defs>
      <use xlink:href="#DejaVuSans-68"/>
     </g>
    </g>
   </g>
   <g id="line2d_8">
    <path d="M 48.567382 111.428491 
L 64.495895 115.421004 
L 80.424409 119.413518 
L 96.352922 123.406031 
L 112.281436 127.398544 
L 128.209949 131.391058 
L 144.138462 135.383571 
L 160.066976 139.376085 
L 175.995489 143.368598 
L 191.924003 147.361111 
L 207.852516 151.353625 
" clip-path="url(#pda502eaa0c)" style="fill: none; stroke: #4c72b0; stroke-width: 1.5; stroke-linecap: square"/>
   </g>
   <g id="line2d_9">
    <path d="M 48.567382 91.465924 
L 48.740518 79.488384 
L 48.827086 91.465924 
L 49.000222 63.518331 
L 49.144502 83.480897 
L 49.173358 79.488384 
L 49.259926 71.503357 
L 49.317638 95.458437 
L 49.37535 75.495871 
L 49.51963 59.525817 
L 49.548486 63.518331 
L 49.606198 75.495871 
L 49.635054 71.503357 
L 49.721622 47.548277 
L 49.750478 51.54079 
L 49.837046 59.525817 
L 49.865902 39.56325 
L 49.95247 47.548277 
L 50.09675 67.510844 
L 50.212174 91.465924 
L 50.24103 87.473411 
L 50.269886 79.488384 
L 50.327598 91.465924 
L 50.356454 91.465924 
L 50.52959 51.54079 
L 50.616158 59.525817 
L 50.645014 55.533304 
L 50.67387 51.54079 
L 50.789294 67.510844 
L 50.991286 27.58571 
L 51.020142 35.570737 
L 51.222134 91.465924 
L 51.25099 79.488384 
L 51.337558 87.473411 
L 51.424126 87.473411 
L 51.53955 63.518331 
L 51.568406 71.503357 
L 51.597262 71.503357 
L 51.626118 67.510844 
L 51.654974 71.503357 
L 51.68383 75.495871 
L 51.741542 71.503357 
L 51.856966 71.503357 
L 51.97239 87.473411 
L 52.11667 103.443464 
L 52.174382 95.458437 
L 52.347518 99.450951 
L 52.40523 99.450951 
L 52.462942 91.465924 
L 52.491798 95.458437 
L 52.607222 103.443464 
L 52.722646 115.421004 
L 52.780358 119.413518 
L 53.097774 119.413518 
L 53.213198 127.398544 
L 53.386334 135.383571 
L 54.511718 135.383571 
L 54.85799 143.368598 
L 58.407279 143.368598 
L 59.388383 147.361111 
L 59.446095 151.353625 
L 59.676943 155.346138 
L 70.324808 155.346138 
L 70.353664 159.338651 
L 75.980584 159.338651 
L 77.856224 163.331165 
L 192.472267 163.331165 
L 192.472267 163.331165 
" clip-path="url(#pda502eaa0c)" style="fill: none; stroke: #dd8452; stroke-width: 1.5; stroke-linecap: square"/>
   </g>
   <g id="line2d_10">
    <path d="M 48.567382 143.368598 
L 106.279387 143.368598 
L 135.13539 143.368598 
L 163.991392 143.368598 
L 192.847395 143.368598 
" clip-path="url(#pda502eaa0c)" style="fill: none; stroke: #55a868; stroke-width: 1.5; stroke-linecap: square"/>
   </g>
   <g id="patch_3">
    <path d="M 40.603125 170.118437 
L 40.603125 20.798437 
" style="fill: none; stroke: #000000; stroke-width: 0.8; stroke-linejoin: miter; stroke-linecap: square"/>
   </g>
   <g id="patch_4">
    <path d="M 40.603125 170.118437 
L 215.816773 170.118437 
" style="fill: none; stroke: #000000; stroke-width: 0.8; stroke-linejoin: miter; stroke-linecap: square"/>
   </g>
   <g id="text_10">
    <!-- iter = 0 -->
    <g transform="translate(109.17948 14.798437)scale(0.1 -0.1)">
     <defs>
      <path id="DejaVuSans-69" d="M 603 3500 
L 1178 3500 
L 1178 0 
L 603 0 
L 603 3500 
z
M 603 4863 
L 1178 4863 
L 1178 4134 
L 603 4134 
L 603 4863 
z
" transform="scale(0.015625)"/>
      <path id="DejaVuSans-72" d="M 2631 2963 
Q 2534 3019 2420 3045 
Q 2306 3072 2169 3072 
Q 1681 3072 1420 2755 
Q 1159 2438 1159 1844 
L 1159 0 
L 581 0 
L 581 3500 
L 1159 3500 
L 1159 2956 
Q 1341 3275 1631 3429 
Q 1922 3584 2338 3584 
Q 2397 3584 2469 3576 
Q 2541 3569 2628 3553 
L 2631 2963 
z
" transform="scale(0.015625)"/>
      <path id="DejaVuSans-20" transform="scale(0.015625)"/>
      <path id="DejaVuSans-3d" d="M 678 2906 
L 4684 2906 
L 4684 2381 
L 678 2381 
L 678 2906 
z
M 678 1631 
L 4684 1631 
L 4684 1100 
L 678 1100 
L 678 1631 
z
" transform="scale(0.015625)"/>
     </defs>
     <use xlink:href="#DejaVuSans-69"/>
     <use xlink:href="#DejaVuSans-74" x="27.783203"/>
     <use xlink:href="#DejaVuSans-65" x="66.992188"/>
     <use xlink:href="#DejaVuSans-72" x="128.515625"/>
     <use xlink:href="#DejaVuSans-20" x="169.628906"/>
     <use xlink:href="#DejaVuSans-3d" x="201.416016"/>
     <use xlink:href="#DejaVuSans-20" x="285.205078"/>
     <use xlink:href="#DejaVuSans-30" x="316.992188"/>
    </g>
   </g>
  </g>
  <g id="axes_2">
   <g id="patch_5">
    <path d="M 245.962155 170.118437 
L 421.175803 170.118437 
L 421.175803 20.798437 
L 245.962155 20.798437 
z
" style="fill: #ffffff"/>
   </g>
   <g id="matplotlib.axis_3">
    <g id="xtick_4">
     <g id="line2d_11">
      <g>
       <use xlink:href="#m5cf0ea4cac" x="253.926412" y="170.118437" style="stroke: #000000; stroke-width: 0.8"/>
      </g>
     </g>
     <g id="text_11">
      <!-- 0 -->
      <g transform="translate(250.745162 184.716875)scale(0.1 -0.1)">
       <use xlink:href="#DejaVuSans-30"/>
      </g>
     </g>
    </g>
    <g id="xtick_5">
     <g id="line2d_12">
      <g>
       <use xlink:href="#m5cf0ea4cac" x="311.638417" y="170.118437" style="stroke: #000000; stroke-width: 0.8"/>
      </g>
     </g>
     <g id="text_12">
      <!-- 2000 -->
      <g transform="translate(298.913417 184.716875)scale(0.1 -0.1)">
       <use xlink:href="#DejaVuSans-32"/>
       <use xlink:href="#DejaVuSans-30" x="63.623047"/>
       <use xlink:href="#DejaVuSans-30" x="127.246094"/>
       <use xlink:href="#DejaVuSans-30" x="190.869141"/>
      </g>
     </g>
    </g>
    <g id="xtick_6">
     <g id="line2d_13">
      <g>
       <use xlink:href="#m5cf0ea4cac" x="369.350422" y="170.118437" style="stroke: #000000; stroke-width: 0.8"/>
      </g>
     </g>
     <g id="text_13">
      <!-- 4000 -->
      <g transform="translate(356.625422 184.716875)scale(0.1 -0.1)">
       <use xlink:href="#DejaVuSans-34"/>
       <use xlink:href="#DejaVuSans-30" x="63.623047"/>
       <use xlink:href="#DejaVuSans-30" x="127.246094"/>
       <use xlink:href="#DejaVuSans-30" x="190.869141"/>
      </g>
     </g>
    </g>
    <g id="text_14">
     <!-- step -->
     <g transform="translate(322.753354 198.395)scale(0.1 -0.1)">
      <use xlink:href="#DejaVuSans-73"/>
      <use xlink:href="#DejaVuSans-74" x="52.099609"/>
      <use xlink:href="#DejaVuSans-65" x="91.308594"/>
      <use xlink:href="#DejaVuSans-70" x="152.832031"/>
     </g>
    </g>
   </g>
   <g id="matplotlib.axis_4">
    <g id="ytick_5">
     <g id="line2d_14">
      <g>
       <use xlink:href="#m901cdb6030" x="245.962155" y="163.331165" style="stroke: #000000; stroke-width: 0.8"/>
      </g>
     </g>
     <g id="text_15">
      <!-- 0 -->
      <g transform="translate(232.599655 167.130384)scale(0.1 -0.1)">
       <use xlink:href="#DejaVuSans-30"/>
      </g>
     </g>
    </g>
    <g id="ytick_6">
     <g id="line2d_15">
      <g>
       <use xlink:href="#m901cdb6030" x="245.962155" y="139.090905" style="stroke: #000000; stroke-width: 0.8"/>
      </g>
     </g>
     <g id="text_16">
      <!-- 5 -->
      <g transform="translate(232.599655 142.890124)scale(0.1 -0.1)">
       <defs>
        <path id="DejaVuSans-35" d="M 691 4666 
L 3169 4666 
L 3169 4134 
L 1269 4134 
L 1269 2991 
Q 1406 3038 1543 3061 
Q 1681 3084 1819 3084 
Q 2600 3084 3056 2656 
Q 3513 2228 3513 1497 
Q 3513 744 3044 326 
Q 2575 -91 1722 -91 
Q 1428 -91 1123 -41 
Q 819 9 494 109 
L 494 744 
Q 775 591 1075 516 
Q 1375 441 1709 441 
Q 2250 441 2565 725 
Q 2881 1009 2881 1497 
Q 2881 1984 2565 2268 
Q 2250 2553 1709 2553 
Q 1456 2553 1204 2497 
Q 953 2441 691 2322 
L 691 4666 
z
" transform="scale(0.015625)"/>
       </defs>
       <use xlink:href="#DejaVuSans-35"/>
      </g>
     </g>
    </g>
    <g id="ytick_7">
     <g id="line2d_16">
      <g>
       <use xlink:href="#m901cdb6030" x="245.962155" y="114.850645" style="stroke: #000000; stroke-width: 0.8"/>
      </g>
     </g>
     <g id="text_17">
      <!-- 10 -->
      <g transform="translate(226.237155 118.649864)scale(0.1 -0.1)">
       <use xlink:href="#DejaVuSans-31"/>
       <use xlink:href="#DejaVuSans-30" x="63.623047"/>
      </g>
     </g>
    </g>
    <g id="ytick_8">
     <g id="line2d_17">
      <g>
       <use xlink:href="#m901cdb6030" x="245.962155" y="90.610386" style="stroke: #000000; stroke-width: 0.8"/>
      </g>
     </g>
     <g id="text_18">
      <!-- 15 -->
      <g transform="translate(226.237155 94.409604)scale(0.1 -0.1)">
       <use xlink:href="#DejaVuSans-31"/>
       <use xlink:href="#DejaVuSans-35" x="63.623047"/>
      </g>
     </g>
    </g>
    <g id="ytick_9">
     <g id="line2d_18">
      <g>
       <use xlink:href="#m901cdb6030" x="245.962155" y="66.370126" style="stroke: #000000; stroke-width: 0.8"/>
      </g>
     </g>
     <g id="text_19">
      <!-- 20 -->
      <g transform="translate(226.237155 70.169345)scale(0.1 -0.1)">
       <use xlink:href="#DejaVuSans-32"/>
       <use xlink:href="#DejaVuSans-30" x="63.623047"/>
      </g>
     </g>
    </g>
    <g id="ytick_10">
     <g id="line2d_19">
      <g>
       <use xlink:href="#m901cdb6030" x="245.962155" y="42.129866" style="stroke: #000000; stroke-width: 0.8"/>
      </g>
     </g>
     <g id="text_20">
      <!-- 25 -->
      <g transform="translate(226.237155 45.929085)scale(0.1 -0.1)">
       <use xlink:href="#DejaVuSans-32"/>
       <use xlink:href="#DejaVuSans-35" x="63.623047"/>
      </g>
     </g>
    </g>
   </g>
   <g id="line2d_20">
    <path d="M 253.926412 100.306489 
L 269.854925 105.154541 
L 285.783439 110.002593 
L 301.711952 114.850645 
L 317.640466 119.698697 
L 333.568979 124.546749 
L 349.497493 129.394801 
L 365.426006 134.242853 
L 381.35452 139.090905 
L 397.283033 143.938957 
L 413.211546 148.787009 
" clip-path="url(#pb100104b89)" style="fill: none; stroke: #4c72b0; stroke-width: 1.5; stroke-linecap: square"/>
   </g>
   <g id="line2d_21">
    <path d="M 253.926412 66.370126 
L 254.01298 51.82597 
L 254.041836 61.522074 
L 254.070692 61.522074 
L 254.099548 71.218178 
L 254.15726 61.522074 
L 254.186116 56.674022 
L 254.243828 61.522074 
L 254.416964 76.06623 
L 254.44582 71.218178 
L 254.474676 85.762334 
L 254.532388 61.522074 
L 254.561244 76.06623 
L 254.5901 80.914282 
L 254.618956 76.06623 
L 254.676668 66.370126 
L 254.705524 71.218178 
L 254.73438 80.914282 
L 254.763236 56.674022 
L 254.87866 61.522074 
L 255.080652 27.58571 
L 255.224932 56.674022 
L 255.253788 56.674022 
L 255.282644 51.82597 
L 255.340356 66.370126 
L 255.398068 61.522074 
L 255.426924 51.82597 
L 255.484636 56.674022 
L 255.513492 71.218178 
L 255.542348 61.522074 
L 255.571204 42.129866 
L 255.657772 56.674022 
L 255.859764 32.433762 
L 255.88862 37.281814 
L 255.946332 32.433762 
L 256.004044 27.58571 
L 256.148324 71.218178 
L 256.17718 66.370126 
L 256.263748 71.218178 
L 256.292604 56.674022 
L 256.350316 71.218178 
L 256.379172 80.914282 
L 256.408028 76.06623 
L 256.638876 46.977918 
L 256.725444 56.674022 
L 256.7543 51.82597 
L 256.812012 51.82597 
L 256.840868 66.370126 
L 256.927436 56.674022 
L 256.985148 37.281814 
L 257.071716 46.977918 
L 257.244852 76.06623 
L 257.417988 80.914282 
L 257.446844 76.06623 
L 257.533412 85.762334 
L 257.648836 76.06623 
L 257.677692 71.218178 
L 257.879684 90.610386 
L 257.995108 85.762334 
L 258.168244 90.610386 
L 258.1971 90.610386 
L 258.225956 95.458437 
L 258.543372 100.306489 
L 258.658796 110.002593 
L 258.860788 110.002593 
L 259.033924 119.698697 
L 259.120492 129.394801 
L 259.293628 134.242853 
L 259.92846 134.242853 
L 259.986172 139.090905 
L 263.275757 139.090905 
L 263.420037 148.787009 
L 292.680023 148.787009 
L 292.824303 153.635061 
L 348.804949 153.635061 
L 348.978085 158.483113 
L 391.45412 158.483113 
L 392.175521 163.331165 
L 392.175521 163.331165 
" clip-path="url(#pb100104b89)" style="fill: none; stroke: #dd8452; stroke-width: 1.5; stroke-linecap: square"/>
   </g>
   <g id="line2d_22">
    <path d="M 253.926412 129.394801 
L 311.638417 129.394801 
L 340.49442 129.394801 
L 369.350422 129.394801 
L 398.206425 129.394801 
" clip-path="url(#pb100104b89)" style="fill: none; stroke: #55a868; stroke-width: 1.5; stroke-linecap: square"/>
   </g>
   <g id="patch_6">
    <path d="M 245.962155 170.118437 
L 245.962155 20.798437 
" style="fill: none; stroke: #000000; stroke-width: 0.8; stroke-linejoin: miter; stroke-linecap: square"/>
   </g>
   <g id="patch_7">
    <path d="M 245.962155 170.118437 
L 421.175803 170.118437 
" style="fill: none; stroke: #000000; stroke-width: 0.8; stroke-linejoin: miter; stroke-linecap: square"/>
   </g>
   <g id="text_21">
    <!-- iter = 1 -->
    <g transform="translate(314.53851 14.798437)scale(0.1 -0.1)">
     <use xlink:href="#DejaVuSans-69"/>
     <use xlink:href="#DejaVuSans-74" x="27.783203"/>
     <use xlink:href="#DejaVuSans-65" x="66.992188"/>
     <use xlink:href="#DejaVuSans-72" x="128.515625"/>
     <use xlink:href="#DejaVuSans-20" x="169.628906"/>
     <use xlink:href="#DejaVuSans-3d" x="201.416016"/>
     <use xlink:href="#DejaVuSans-20" x="285.205078"/>
     <use xlink:href="#DejaVuSans-31" x="316.992188"/>
    </g>
   </g>
  </g>
  <g id="axes_3">
   <g id="patch_8">
    <path d="M 451.321185 170.118437 
L 626.534833 170.118437 
L 626.534833 20.798437 
L 451.321185 20.798437 
z
" style="fill: #ffffff"/>
   </g>
   <g id="matplotlib.axis_5">
    <g id="xtick_7">
     <g id="line2d_23">
      <g>
       <use xlink:href="#m5cf0ea4cac" x="459.285442" y="170.118437" style="stroke: #000000; stroke-width: 0.8"/>
      </g>
     </g>
     <g id="text_22">
      <!-- 0 -->
      <g transform="translate(456.104192 184.716875)scale(0.1 -0.1)">
       <use xlink:href="#DejaVuSans-30"/>
      </g>
     </g>
    </g>
    <g id="xtick_8">
     <g id="line2d_24">
      <g>
       <use xlink:href="#m5cf0ea4cac" x="516.997447" y="170.118437" style="stroke: #000000; stroke-width: 0.8"/>
      </g>
     </g>
     <g id="text_23">
      <!-- 2000 -->
      <g transform="translate(504.272447 184.716875)scale(0.1 -0.1)">
       <use xlink:href="#DejaVuSans-32"/>
       <use xlink:href="#DejaVuSans-30" x="63.623047"/>
       <use xlink:href="#DejaVuSans-30" x="127.246094"/>
       <use xlink:href="#DejaVuSans-30" x="190.869141"/>
      </g>
     </g>
    </g>
    <g id="xtick_9">
     <g id="line2d_25">
      <g>
       <use xlink:href="#m5cf0ea4cac" x="574.709453" y="170.118437" style="stroke: #000000; stroke-width: 0.8"/>
      </g>
     </g>
     <g id="text_24">
      <!-- 4000 -->
      <g transform="translate(561.984453 184.716875)scale(0.1 -0.1)">
       <use xlink:href="#DejaVuSans-34"/>
       <use xlink:href="#DejaVuSans-30" x="63.623047"/>
       <use xlink:href="#DejaVuSans-30" x="127.246094"/>
       <use xlink:href="#DejaVuSans-30" x="190.869141"/>
      </g>
     </g>
    </g>
    <g id="text_25">
     <!-- step -->
     <g transform="translate(528.112384 198.395)scale(0.1 -0.1)">
      <use xlink:href="#DejaVuSans-73"/>
      <use xlink:href="#DejaVuSans-74" x="52.099609"/>
      <use xlink:href="#DejaVuSans-65" x="91.308594"/>
      <use xlink:href="#DejaVuSans-70" x="152.832031"/>
     </g>
    </g>
   </g>
   <g id="matplotlib.axis_6">
    <g id="ytick_11">
     <g id="line2d_26">
      <g>
       <use xlink:href="#m901cdb6030" x="451.321185" y="163.331165" style="stroke: #000000; stroke-width: 0.8"/>
      </g>
     </g>
     <g id="text_26">
      <!-- 0 -->
      <g transform="translate(437.958685 167.130384)scale(0.1 -0.1)">
       <use xlink:href="#DejaVuSans-30"/>
      </g>
     </g>
    </g>
    <g id="ytick_12">
     <g id="line2d_27">
      <g>
       <use xlink:href="#m901cdb6030" x="451.321185" y="122.196179" style="stroke: #000000; stroke-width: 0.8"/>
      </g>
     </g>
     <g id="text_27">
      <!-- 10 -->
      <g transform="translate(431.596185 125.995397)scale(0.1 -0.1)">
       <use xlink:href="#DejaVuSans-31"/>
       <use xlink:href="#DejaVuSans-30" x="63.623047"/>
      </g>
     </g>
    </g>
    <g id="ytick_13">
     <g id="line2d_28">
      <g>
       <use xlink:href="#m901cdb6030" x="451.321185" y="81.061192" style="stroke: #000000; stroke-width: 0.8"/>
      </g>
     </g>
     <g id="text_28">
      <!-- 20 -->
      <g transform="translate(431.596185 84.860411)scale(0.1 -0.1)">
       <use xlink:href="#DejaVuSans-32"/>
       <use xlink:href="#DejaVuSans-30" x="63.623047"/>
      </g>
     </g>
    </g>
    <g id="ytick_14">
     <g id="line2d_29">
      <g>
       <use xlink:href="#m901cdb6030" x="451.321185" y="39.926206" style="stroke: #000000; stroke-width: 0.8"/>
      </g>
     </g>
     <g id="text_29">
      <!-- 30 -->
      <g transform="translate(431.596185 43.725425)scale(0.1 -0.1)">
       <use xlink:href="#DejaVuSans-33"/>
       <use xlink:href="#DejaVuSans-30" x="63.623047"/>
      </g>
     </g>
    </g>
   </g>
   <g id="line2d_30">
    <path d="M 459.285442 97.515187 
L 475.213955 101.628685 
L 491.142469 105.742184 
L 507.070982 109.855683 
L 522.999496 122.196179 
L 538.928009 126.309677 
L 554.856523 130.423176 
L 570.785036 134.536674 
L 586.71355 138.650173 
L 602.642063 142.763672 
L 618.570577 146.87717 
" clip-path="url(#p7a6f28cb79)" style="fill: none; stroke: #4c72b0; stroke-width: 1.5; stroke-linecap: square"/>
   </g>
   <g id="line2d_31">
    <path d="M 459.285442 113.969181 
L 459.314298 105.742184 
L 459.400866 109.855683 
L 459.689426 76.947694 
L 459.718282 81.061192 
L 459.747138 64.607198 
L 459.80485 89.28819 
L 459.977986 64.607198 
L 460.122266 81.061192 
L 460.179978 56.380201 
L 460.23769 60.493699 
L 460.353114 68.720696 
L 460.439682 64.607198 
L 460.52625 76.947694 
L 460.555106 68.720696 
L 460.612818 72.834195 
L 460.728242 56.380201 
L 460.901378 72.834195 
L 461.074514 27.58571 
L 461.189938 27.58571 
L 461.24765 48.153203 
L 461.334218 44.039705 
L 461.53621 76.947694 
L 461.651634 60.493699 
L 461.68049 64.607198 
L 461.767058 64.607198 
L 461.940194 101.628685 
L 461.997906 85.174691 
L 462.055618 72.834195 
L 462.084474 85.174691 
L 462.11333 85.174691 
L 462.142186 89.28819 
L 462.25761 85.174691 
L 462.286466 89.28819 
L 462.315322 76.947694 
L 462.40189 81.061192 
L 462.459602 76.947694 
L 462.517314 93.401688 
L 462.575026 89.28819 
L 462.603882 81.061192 
L 462.69045 85.174691 
L 462.83473 101.628685 
L 462.97901 97.515187 
L 463.41185 113.969181 
L 463.584986 113.969181 
L 463.613842 109.855683 
L 463.758122 122.196179 
L 464.017826 126.309677 
L 464.825795 126.309677 
L 464.912363 130.423176 
L 465.287491 130.423176 
L 465.460627 134.536674 
L 467.826819 134.536674 
L 468.230803 138.650173 
L 468.519363 146.87717 
L 470.366147 146.87717 
L 470.481571 150.990669 
L 472.241787 150.990669 
L 472.357211 155.104168 
L 472.443779 155.104168 
L 473.107467 159.217666 
L 574.449749 159.217666 
L 575.171149 163.331165 
L 575.171149 163.331165 
" clip-path="url(#p7a6f28cb79)" style="fill: none; stroke: #dd8452; stroke-width: 1.5; stroke-linecap: square"/>
   </g>
   <g id="line2d_32">
    <path d="M 459.285442 142.763672 
L 516.997447 142.763672 
L 545.85345 142.763672 
L 574.709453 142.763672 
L 603.565455 142.763672 
" clip-path="url(#p7a6f28cb79)" style="fill: none; stroke: #55a868; stroke-width: 1.5; stroke-linecap: square"/>
   </g>
   <g id="patch_9">
    <path d="M 451.321185 170.118437 
L 451.321185 20.798437 
" style="fill: none; stroke: #000000; stroke-width: 0.8; stroke-linejoin: miter; stroke-linecap: square"/>
   </g>
   <g id="patch_10">
    <path d="M 451.321185 170.118437 
L 626.534833 170.118437 
" style="fill: none; stroke: #000000; stroke-width: 0.8; stroke-linejoin: miter; stroke-linecap: square"/>
   </g>
   <g id="text_30">
    <!-- iter = 2 -->
    <g transform="translate(519.897541 14.798437)scale(0.1 -0.1)">
     <use xlink:href="#DejaVuSans-69"/>
     <use xlink:href="#DejaVuSans-74" x="27.783203"/>
     <use xlink:href="#DejaVuSans-65" x="66.992188"/>
     <use xlink:href="#DejaVuSans-72" x="128.515625"/>
     <use xlink:href="#DejaVuSans-20" x="169.628906"/>
     <use xlink:href="#DejaVuSans-3d" x="201.416016"/>
     <use xlink:href="#DejaVuSans-20" x="285.205078"/>
     <use xlink:href="#DejaVuSans-32" x="316.992188"/>
    </g>
   </g>
  </g>
  <g id="legend_1">
   <g id="text_31">
    <!-- algorithm -->
    <g transform="translate(677.482808 84.162344)scale(0.1 -0.1)">
     <defs>
      <path id="DejaVuSans-61" d="M 2194 1759 
Q 1497 1759 1228 1600 
Q 959 1441 959 1056 
Q 959 750 1161 570 
Q 1363 391 1709 391 
Q 2188 391 2477 730 
Q 2766 1069 2766 1631 
L 2766 1759 
L 2194 1759 
z
M 3341 1997 
L 3341 0 
L 2766 0 
L 2766 531 
Q 2569 213 2275 61 
Q 1981 -91 1556 -91 
Q 1019 -91 701 211 
Q 384 513 384 1019 
Q 384 1609 779 1909 
Q 1175 2209 1959 2209 
L 2766 2209 
L 2766 2266 
Q 2766 2663 2505 2880 
Q 2244 3097 1772 3097 
Q 1472 3097 1187 3025 
Q 903 2953 641 2809 
L 641 3341 
Q 956 3463 1253 3523 
Q 1550 3584 1831 3584 
Q 2591 3584 2966 3190 
Q 3341 2797 3341 1997 
z
" transform="scale(0.015625)"/>
      <path id="DejaVuSans-6c" d="M 603 4863 
L 1178 4863 
L 1178 0 
L 603 0 
L 603 4863 
z
" transform="scale(0.015625)"/>
      <path id="DejaVuSans-67" d="M 2906 1791 
Q 2906 2416 2648 2759 
Q 2391 3103 1925 3103 
Q 1463 3103 1205 2759 
Q 947 2416 947 1791 
Q 947 1169 1205 825 
Q 1463 481 1925 481 
Q 2391 481 2648 825 
Q 2906 1169 2906 1791 
z
M 3481 434 
Q 3481 -459 3084 -895 
Q 2688 -1331 1869 -1331 
Q 1566 -1331 1297 -1286 
Q 1028 -1241 775 -1147 
L 775 -588 
Q 1028 -725 1275 -790 
Q 1522 -856 1778 -856 
Q 2344 -856 2625 -561 
Q 2906 -266 2906 331 
L 2906 616 
Q 2728 306 2450 153 
Q 2172 0 1784 0 
Q 1141 0 747 490 
Q 353 981 353 1791 
Q 353 2603 747 3093 
Q 1141 3584 1784 3584 
Q 2172 3584 2450 3431 
Q 2728 3278 2906 2969 
L 2906 3500 
L 3481 3500 
L 3481 434 
z
" transform="scale(0.015625)"/>
      <path id="DejaVuSans-6f" d="M 1959 3097 
Q 1497 3097 1228 2736 
Q 959 2375 959 1747 
Q 959 1119 1226 758 
Q 1494 397 1959 397 
Q 2419 397 2687 759 
Q 2956 1122 2956 1747 
Q 2956 2369 2687 2733 
Q 2419 3097 1959 3097 
z
M 1959 3584 
Q 2709 3584 3137 3096 
Q 3566 2609 3566 1747 
Q 3566 888 3137 398 
Q 2709 -91 1959 -91 
Q 1206 -91 779 398 
Q 353 888 353 1747 
Q 353 2609 779 3096 
Q 1206 3584 1959 3584 
z
" transform="scale(0.015625)"/>
      <path id="DejaVuSans-6d" d="M 3328 2828 
Q 3544 3216 3844 3400 
Q 4144 3584 4550 3584 
Q 5097 3584 5394 3201 
Q 5691 2819 5691 2113 
L 5691 0 
L 5113 0 
L 5113 2094 
Q 5113 2597 4934 2840 
Q 4756 3084 4391 3084 
Q 3944 3084 3684 2787 
Q 3425 2491 3425 1978 
L 3425 0 
L 2847 0 
L 2847 2094 
Q 2847 2600 2669 2842 
Q 2491 3084 2119 3084 
Q 1678 3084 1418 2786 
Q 1159 2488 1159 1978 
L 1159 0 
L 581 0 
L 581 3500 
L 1159 3500 
L 1159 2956 
Q 1356 3278 1631 3431 
Q 1906 3584 2284 3584 
Q 2666 3584 2933 3390 
Q 3200 3197 3328 2828 
z
" transform="scale(0.015625)"/>
     </defs>
     <use xlink:href="#DejaVuSans-61"/>
     <use xlink:href="#DejaVuSans-6c" x="61.279297"/>
     <use xlink:href="#DejaVuSans-67" x="89.0625"/>
     <use xlink:href="#DejaVuSans-6f" x="152.539062"/>
     <use xlink:href="#DejaVuSans-72" x="213.720703"/>
     <use xlink:href="#DejaVuSans-69" x="254.833984"/>
     <use xlink:href="#DejaVuSans-74" x="282.617188"/>
     <use xlink:href="#DejaVuSans-68" x="321.826172"/>
     <use xlink:href="#DejaVuSans-6d" x="385.205078"/>
    </g>
   </g>
   <g id="line2d_33">
    <path d="M 635.753121 95.340469 
L 645.753121 95.340469 
L 655.753121 95.340469 
" style="fill: none; stroke: #4c72b0; stroke-width: 1.5; stroke-linecap: square"/>
   </g>
   <g id="text_32">
    <!-- hill_climbing -->
    <g transform="translate(663.753121 98.840469)scale(0.1 -0.1)">
     <defs>
      <path id="DejaVuSans-5f" d="M 3263 -1063 
L 3263 -1509 
L -63 -1509 
L -63 -1063 
L 3263 -1063 
z
" transform="scale(0.015625)"/>
      <path id="DejaVuSans-63" d="M 3122 3366 
L 3122 2828 
Q 2878 2963 2633 3030 
Q 2388 3097 2138 3097 
Q 1578 3097 1268 2742 
Q 959 2388 959 1747 
Q 959 1106 1268 751 
Q 1578 397 2138 397 
Q 2388 397 2633 464 
Q 2878 531 3122 666 
L 3122 134 
Q 2881 22 2623 -34 
Q 2366 -91 2075 -91 
Q 1284 -91 818 406 
Q 353 903 353 1747 
Q 353 2603 823 3093 
Q 1294 3584 2113 3584 
Q 2378 3584 2631 3529 
Q 2884 3475 3122 3366 
z
" transform="scale(0.015625)"/>
      <path id="DejaVuSans-62" d="M 3116 1747 
Q 3116 2381 2855 2742 
Q 2594 3103 2138 3103 
Q 1681 3103 1420 2742 
Q 1159 2381 1159 1747 
Q 1159 1113 1420 752 
Q 1681 391 2138 391 
Q 2594 391 2855 752 
Q 3116 1113 3116 1747 
z
M 1159 2969 
Q 1341 3281 1617 3432 
Q 1894 3584 2278 3584 
Q 2916 3584 3314 3078 
Q 3713 2572 3713 1747 
Q 3713 922 3314 415 
Q 2916 -91 2278 -91 
Q 1894 -91 1617 61 
Q 1341 213 1159 525 
L 1159 0 
L 581 0 
L 581 4863 
L 1159 4863 
L 1159 2969 
z
" transform="scale(0.015625)"/>
      <path id="DejaVuSans-6e" d="M 3513 2113 
L 3513 0 
L 2938 0 
L 2938 2094 
Q 2938 2591 2744 2837 
Q 2550 3084 2163 3084 
Q 1697 3084 1428 2787 
Q 1159 2491 1159 1978 
L 1159 0 
L 581 0 
L 581 3500 
L 1159 3500 
L 1159 2956 
Q 1366 3272 1645 3428 
Q 1925 3584 2291 3584 
Q 2894 3584 3203 3211 
Q 3513 2838 3513 2113 
z
" transform="scale(0.015625)"/>
     </defs>
     <use xlink:href="#DejaVuSans-68"/>
     <use xlink:href="#DejaVuSans-69" x="63.378906"/>
     <use xlink:href="#DejaVuSans-6c" x="91.162109"/>
     <use xlink:href="#DejaVuSans-6c" x="118.945312"/>
     <use xlink:href="#DejaVuSans-5f" x="146.728516"/>
     <use xlink:href="#DejaVuSans-63" x="196.728516"/>
     <use xlink:href="#DejaVuSans-6c" x="251.708984"/>
     <use xlink:href="#DejaVuSans-69" x="279.492188"/>
     <use xlink:href="#DejaVuSans-6d" x="307.275391"/>
     <use xlink:href="#DejaVuSans-62" x="404.6875"/>
     <use xlink:href="#DejaVuSans-69" x="468.164062"/>
     <use xlink:href="#DejaVuSans-6e" x="495.947266"/>
     <use xlink:href="#DejaVuSans-67" x="559.326172"/>
    </g>
   </g>
   <g id="line2d_34">
    <path d="M 635.753121 110.296719 
L 645.753121 110.296719 
L 655.753121 110.296719 
" style="fill: none; stroke: #dd8452; stroke-width: 1.5; stroke-linecap: square"/>
   </g>
   <g id="text_33">
    <!-- simulated_annealing -->
    <g transform="translate(663.753121 113.796719)scale(0.1 -0.1)">
     <defs>
      <path id="DejaVuSans-75" d="M 544 1381 
L 544 3500 
L 1119 3500 
L 1119 1403 
Q 1119 906 1312 657 
Q 1506 409 1894 409 
Q 2359 409 2629 706 
Q 2900 1003 2900 1516 
L 2900 3500 
L 3475 3500 
L 3475 0 
L 2900 0 
L 2900 538 
Q 2691 219 2414 64 
Q 2138 -91 1772 -91 
Q 1169 -91 856 284 
Q 544 659 544 1381 
z
M 1991 3584 
L 1991 3584 
z
" transform="scale(0.015625)"/>
      <path id="DejaVuSans-64" d="M 2906 2969 
L 2906 4863 
L 3481 4863 
L 3481 0 
L 2906 0 
L 2906 525 
Q 2725 213 2448 61 
Q 2172 -91 1784 -91 
Q 1150 -91 751 415 
Q 353 922 353 1747 
Q 353 2572 751 3078 
Q 1150 3584 1784 3584 
Q 2172 3584 2448 3432 
Q 2725 3281 2906 2969 
z
M 947 1747 
Q 947 1113 1208 752 
Q 1469 391 1925 391 
Q 2381 391 2643 752 
Q 2906 1113 2906 1747 
Q 2906 2381 2643 2742 
Q 2381 3103 1925 3103 
Q 1469 3103 1208 2742 
Q 947 2381 947 1747 
z
" transform="scale(0.015625)"/>
     </defs>
     <use xlink:href="#DejaVuSans-73"/>
     <use xlink:href="#DejaVuSans-69" x="52.099609"/>
     <use xlink:href="#DejaVuSans-6d" x="79.882812"/>
     <use xlink:href="#DejaVuSans-75" x="177.294922"/>
     <use xlink:href="#DejaVuSans-6c" x="240.673828"/>
     <use xlink:href="#DejaVuSans-61" x="268.457031"/>
     <use xlink:href="#DejaVuSans-74" x="329.736328"/>
     <use xlink:href="#DejaVuSans-65" x="368.945312"/>
     <use xlink:href="#DejaVuSans-64" x="430.46875"/>
     <use xlink:href="#DejaVuSans-5f" x="493.945312"/>
     <use xlink:href="#DejaVuSans-61" x="543.945312"/>
     <use xlink:href="#DejaVuSans-6e" x="605.224609"/>
     <use xlink:href="#DejaVuSans-6e" x="668.603516"/>
     <use xlink:href="#DejaVuSans-65" x="731.982422"/>
     <use xlink:href="#DejaVuSans-61" x="793.505859"/>
     <use xlink:href="#DejaVuSans-6c" x="854.785156"/>
     <use xlink:href="#DejaVuSans-69" x="882.568359"/>
     <use xlink:href="#DejaVuSans-6e" x="910.351562"/>
     <use xlink:href="#DejaVuSans-67" x="973.730469"/>
    </g>
   </g>
   <g id="line2d_35">
    <path d="M 635.753121 125.252969 
L 645.753121 125.252969 
L 655.753121 125.252969 
" style="fill: none; stroke: #55a868; stroke-width: 1.5; stroke-linecap: square"/>
   </g>
   <g id="text_34">
    <!-- genetic_algorithm -->
    <g transform="translate(663.753121 128.752969)scale(0.1 -0.1)">
     <use xlink:href="#DejaVuSans-67"/>
     <use xlink:href="#DejaVuSans-65" x="63.476562"/>
     <use xlink:href="#DejaVuSans-6e" x="125"/>
     <use xlink:href="#DejaVuSans-65" x="188.378906"/>
     <use xlink:href="#DejaVuSans-74" x="249.902344"/>
     <use xlink:href="#DejaVuSans-69" x="289.111328"/>
     <use xlink:href="#DejaVuSans-63" x="316.894531"/>
     <use xlink:href="#DejaVuSans-5f" x="371.875"/>
     <use xlink:href="#DejaVuSans-61" x="421.875"/>
     <use xlink:href="#DejaVuSans-6c" x="483.154297"/>
     <use xlink:href="#DejaVuSans-67" x="510.9375"/>
     <use xlink:href="#DejaVuSans-6f" x="574.414062"/>
     <use xlink:href="#DejaVuSans-72" x="635.595703"/>
     <use xlink:href="#DejaVuSans-69" x="676.708984"/>
     <use xlink:href="#DejaVuSans-74" x="704.492188"/>
     <use xlink:href="#DejaVuSans-68" x="743.701172"/>
     <use xlink:href="#DejaVuSans-6d" x="807.080078"/>
    </g>
   </g>
  </g>
 </g>
 <defs>
  <clipPath id="pda502eaa0c">
   <rect x="40.603125" y="20.798437" width="175.213648" height="149.32"/>
  </clipPath>
  <clipPath id="pb100104b89">
   <rect x="245.962155" y="20.798437" width="175.213648" height="149.32"/>
  </clipPath>
  <clipPath id="p7a6f28cb79">
   <rect x="451.321185" y="20.798437" width="175.213648" height="149.32"/>
  </clipPath>
 </defs>
</svg>
